<svg xmlns="http://www.w3.org/2000/svg" width="320" height="200" viewBox="0 0 320 200">
  <rect width="320" height="200" fill="#faf7f2"/>
  <rect x="16" y="16" width="288" height="36" rx="4" fill="#fff"/>
  <rect x="24" y="24" width="80" height="6" rx="3" fill="#e8695a"/>
  <rect x="24" y="36" width="50" height="4" rx="2" fill="#eee8e0"/>
  <rect x="16" y="64" width="288" height="56" rx="4" fill="#fff"/>
  <rect x="24" y="72" width="60" height="4" rx="2" fill="#f59e0b"/>
  <rect x="24" y="84" width="110" height="4" rx="2" fill="#ddd"/>
  <rect x="24" y="94" width="90" height="4" rx="2" fill="#ddd"/>
  <rect x="16" y="132" width="92" height="52" rx="4" fill="#fff"/>
  <rect x="24" y="140" width="76" height="4" rx="2" fill="#e8695a"/>
  <rect x="24" y="152" width="60" height="4" rx="2" fill="#ddd"/>
  <rect x="114" y="132" width="92" height="52" rx="4" fill="#fff"/>
  <rect x="122" y="140" width="76" height="4" rx="2" fill="#f59e0b"/>
  <rect x="122" y="152" width="60" height="4" rx="2" fill="#ddd"/>
  <rect x="212" y="132" width="92" height="52" rx="4" fill="#fff"/>
  <rect x="220" y="140" width="76" height="4" rx="2" fill="#f97316"/>
  <rect x="220" y="152" width="60" height="4" rx="2" fill="#ddd"/>
</svg>
